/* XPM */
static char *result[] = {
/* columns rows colors chars-per-pixel */
"32 32 33 1 ",
"  c black",
". c #2E2019",
"X c #182023",
"o c #153223",
"O c #282828",
"+ c #343434",
"@ c #413120",
"# c #4C3224",
"$ c #4A3E25",
"% c #284928",
"& c #284435",
"* c #285336",
"= c #245A38",
"- c #616628",
"; c #303C68",
": c #256845",
"> c #1B4074",
", c #8C611F",
"< c #9F7525",
"1 c #AF7D28",
"2 c #9A923A",
"3 c #B2A132",
"4 c #C0A734",
"5 c #CFB538",
"6 c #D0C63D",
"7 c #203A81",
"8 c #2D3398",
"9 c #888A91",
"0 c #AF9882",
"q c #9C9EA3",
"w c #A8B0B8",
"e c #CFC3A7",
"r c gray77",
/* pixels */
">>77777>88>>77;>>>77777>88>>77;>",
"777>>>>>>>>>6663<27>>>>>>>>>>>>>",
";88>77777>>65646532>77777>>>>>78",
">>>>>>>>776365553553>>>>77777>>8",
"77;>>>>>>><5565556253>>>>>>>>>>7",
">>>>77777>,36554543277777>8>7777",
">8>>>>8887756545521>>>888777>>>>",
">>8>>>>>>>>65425432>>>>>>>>>>>>;",
">7777777>>36542452427777>>>>8>>>",
">>>>>>778765454323<4>>778777>>>7",
"77777>>>>>5325423<147>>>>>>>>>>;",
">>>>7>>88>32o3533-317>>88>>77788",
"78>777>>8873&o3o<o<777>>8877>>>>",
">>7>>>>>>>5>%3o&o373>>>>>>>>7777",
">>>>>>>8;7>>:%&%&&>>>>>8;7>>>7>>",
">>>;>>77>>>;=o%&%=>;>>77>>>;777>",
">>77777>88>w=o&%o=97777>88>>77;>",
"777>>>>>>>>ew&*%ow0>>>>>>>>>>>>>",
";88>77777>>>&*:&%o8>77777>>>>>78",
">>>>>>>>7777:=*%*&>>>>>>77777>>8",
"77;>>>>>>>>=:*%*%&o>>>>>>>>>>>>7",
">>>>77777>r::*:*&%&977777>8>7777",
">8>>>>88877rw=*%&9w>>>888777>>>>",
">>8>>>>>>>>>>rqwq>8>>>>>>>>>>>>;",
">7777777>>>>8>OO>7777777>>>>8>>>",
">>>>>>778777>>++>>>>>>778777>>>7",
"77777>>>>>>>X##@$X777>>>>>>>>>>;",
">>>>7>>88>>X .... X>7>>88>>77788",
"78>777>>887XX    XX777>>8877>>>>",
">>7>>>>>>>>>XX  XX7>>>>>>>>>7777",
">>>>>>>8;7>>>7>>>>>>>>>8;7>>>7>>",
">>>;>>77>>>;777>>>>;>>77>>>;777>"
};
