/* XPM */
static char *f54387a92f8c49ed99a2b3a90802dbaaZtphMWxqVVJEQSbA[] = {
/* columns rows colors chars-per-pixel */
"32 32 28 1 ",
"  c black",
". c #060000",
"X c #1E0402",
"o c #48170B",
"O c #4B170C",
"+ c #581B10",
"@ c #303C68",
"# c #6B336F",
"$ c #6D346F",
"% c #73346E",
"& c #633171",
"* c #1B4074",
"= c #B63926",
"- c #BF3B28",
"; c #C03C28",
": c #C63D29",
"> c #D1512E",
", c #DA5130",
"< c #DD5330",
"1 c #DE5430",
"2 c #D4513C",
"3 c #E05731",
"4 c #203A81",
"5 c #2D3398",
"6 c #0052CE",
"7 c #0055D3",
"8 c #005BE2",
"9 c #005CE4",
/* pixels */
"**44444*55**44@***44444*55**44@*",
"444*************44  ************",
"@55*44444    *45@  *44444*****45",
"********44    *5     ***44444**5",
"44@****** *         *   *******4",
"****44444*             44*5*4444",
"*5****5                 5444****",
"**5*****              *  ******@",
"*4444444              44****5***",
"******4 5              45444***4",
"44444*                  * *****@",
"****4 *5             *   **44455",
"45*444*               **5544****",
"**4****               ******4444",
"******                *5@4***4**",
"***@**4 *              4***@444*",
"**44444*                55**44@*",
"444*****              * ********",
"@55*44444*    :X -o  4444*****45",
"********4 ;  ;O. :O=+***44444**5",
"44@*******1;>1 -;<:,* *********4",
"****44444*51&3-<1%2*44444*5*4444",
"*5****5554447#**$6****555444****",
"**5*********9**@*85************@",
"*4444444****5****4444444****5***",
"******445444***4******445444***4",
"44444**********@44444**********@",
"****4**55**44455****4**55**44455",
"45*444**554        444**5544****",
"**4*******          ********4444",
"*******5@4*         ***5@4***4**",
"***@**44***@444****@**44***@444*"
};
