/* XPM */
static char *_12b98d21a844adc820ac7c1998812ebYDe4bTgsaFXcskFw[] = {
/* columns rows colors chars-per-pixel */
"32 32 82 1 ",
"  c black",
". c #000004",
"X c #000208",
"o c #000212",
"O c #000216",
"+ c #00021A",
"@ c #00051C",
"# c #000422",
"$ c #00082D",
"% c #1A072F",
"& c #00122E",
"* c #000830",
"= c #000E3B",
"- c #00103F",
"; c #400017",
": c #5F0016",
"> c #5C2414",
", c #652716",
"< c #4B1D2E",
"1 c #640028",
"2 c #001243",
"3 c #001546",
"4 c #00214F",
"5 c #002354",
"6 c #001F6A",
"7 c #002D6F",
"8 c #002170",
"9 c #002375",
"0 c #00237A",
"q c #132479",
"w c #29356F",
"e c #303C68",
"r c #392170",
"t c #5B1E70",
"y c #4F2D75",
"u c #5A2F73",
"i c #1B4074",
"p c #5B5762",
"a c #797777",
"s c #7B7B7B",
"d c #9A003A",
"f c #A7002A",
"g c #AA002E",
"h c #CE0037",
"j c #C93F32",
"k c #CE402B",
"l c #DF5631",
"z c #E05731",
"x c #E35932",
"c c #E55A33",
"v c #E65C34",
"b c #931353",
"n c #981754",
"m c #94256E",
"M c #C60041",
"N c #CA0048",
"B c #C60057",
"V c #C00058",
"C c #C30C65",
"Z c #C64144",
"A c #FF7946",
"S c #00308A",
"D c #00318C",
"F c #203A81",
"G c #2D3398",
"H c #004AB3",
"J c #004DBB",
"K c #1D4DB7",
"L c #3748AF",
"P c #2D49B2",
"I c #2E4AB5",
"U c #3A4BB3",
"Y c #414CB1",
"T c #0050C3",
"R c #0056D6",
"E c #2C59DC",
"W c #3C57D9",
"Q c #325CDC",
"! c #3B58D9",
"~ c #005CE4",
"^ c #F5E1E2",
"/ c #F2EAEA",
/* pixels */
"iiFFFFFiGGiiFFeiiiFFFFFiGGiiFFei",
"FFFiiiiiiii  iiiFFFiiiiiiiiiiiii",
"eGGiFFFFFiii  FGeG    FFFiiiiiFG",
"iiiiiiiiFF     Gi    iiiFFFFFiiG",
"FFeiiii   i         i iiiiiiiiiF",
"iiiiFFFF             FFFFiGiFFFF",
"iGiiiiG       3         GFFFiiii",
"iiGiii  i     62.2O    iiiiiiiie",
"iFFFFFFFi   -  D26#=+  FiiiiGiii",
"iiiiiiFF   =Ss JS1aw$ F GFFFiiiF",
"FFFFF i    8J/:TTM^pO    iiiiiie",
"iiiiFi   i  LnC~~mVt%  GG iFFFGG",
"FGiFFFiiG   dPW~~!Ib;   GGFFiiii",
"iiFiiiiii   9fNEEBgr*   iiiiFFFF",
"iiiiiiiGe   &kKhhUZ<o    FiiiFii",
"iiieiiFF   @JkkqqjkY4XF iiieFFFi",
"iiFFFFF    J0zzkklzyH5 iGGiiFFei",
"FFFiiii i ~0zzzzzzzzuR7iiiiiiiii",
"eGGiFFFFFi  zzAAAAcz>FFFFiiiiiFG",
"iiiiiiiiFF zzAAAAAczz,iiFFFFFiiG",
"FFeiiiiiiiizzAAAAAAvziiiiiiiiiiF",
"iiiiFFFFFiGizAAAAAAvFFFFFiGiFFFF",
"iGiiiiGGGFFFi~zAAxQiiiGGGFFFiiii",
"iiGiiiiiiiiii~ieii~iiiiiiiiiiiie",
"iFFFFFFFiiiiGiiiiFFFFFFFiiiiGiii",
"iiiiiiFFGFFFiiiFiiiiiiFFGFFFiiiF",
"FFFFFiiiiiiiiiieFFFFFiiiiiiiiiie",
"iiiiFiiGGiiFFFGGiiiiFiiGGiiFFFGG",
"FGiFFFiiGGFF        FFiiGGFFiiii",
"iiFiiiiiiii          iiiiiiiFFFF",
"iiiiiiiGeFii        iiiGeFiiiFii",
"iiieiiFFiiieFFFiiiieiiFFiiieFFFi"
};
