/* XPM */
static char *_b1a6f5aea554c98ff487474a64e0dbdE3GnnNGzLscN4CSR[] = {
/* columns rows colors chars-per-pixel */
"32 32 45 1 ",
"  c black",
". c #000211",
"X c #340006",
"o c #00082C",
"O c #4D000F",
"+ c #4B170C",
"@ c #4A0010",
"# c #52200F",
"$ c #00204D",
"% c #002375",
"& c #00237A",
"* c #132479",
"= c #303C68",
"- c #2E2677",
"; c #6B336F",
": c #633171",
"> c #1B4074",
", c #727272",
"< c #A3002A",
"1 c #AA002B",
"2 c #A20031",
"3 c #A51F37",
"4 c #D20030",
"5 c #C93E2A",
"6 c #CD3F2B",
"7 c #C63F37",
"8 c #CE402B",
"9 c #C9403D",
"0 c #DE5430",
"q c #E05731",
"w c #E85D35",
"e c #9A195A",
"r c #C7005D",
"t c #C64146",
"y c #FF7946",
"u c #203A81",
"i c #2D3398",
"p c #004BB7",
"a c #004DBB",
"s c #004EBF",
"d c #674FAA",
"f c #005BE2",
"g c #005CE4",
"h c #F4EEEF",
"j c white",
/* pixels */
">>uuuuu>ii>>uu=>>>uuuuu>ii>>uu=>",
"uuu>>>>>>>>>>>> uu   >>>>>>>>>>>",
"=ii>uuuuu>> >>ui    uuuuu>>>>>ui",
">>>>>>>>uu    >    >>   uuuuu>>i",
"uu=>>>>>  >>           > >>>>>>u",
">>>>uuuuu>i           uuu>i>uuuu",
">i>>>>iiiu              iuuu>>>>",
">>i>>>>>          %o     >>>>>>=",
">uuuuuu  >     &.      u>>>>i>>>",
">>>>>> ui      <4X%p$   iuuu>>>u",
"uuuuu>>>     & j3pfeh,> >>>>>>>=",
">>>>u>>i     <aaafgr1@>ii>>uuuii",
"ui>uuu> ii   a<4fgsa$ >>iiuu>>>>",
">>u>>>>>>     8a244O >>>>>>>uuuu",
">>>>>>>i=    888*&7+  >i=u>>>u>>",
">>>=>>uu    8&aq880# >uu>>>=uuu>",
">>uuuuu>ii 6*aayqqq#uuu>ii>>uu=>",
"uuu>>>>>> 5-aa9yyyy> >>>>>>>>>>>",
"=ii>uuuuu>87tt0yyyy>uuuuu>>>>>ui",
">>>>>>>>uuu880qyyyy>>>>>uuuuu>>i",
"uu=>>>>>>>>>0qqwyy=>>>>>>>>>>>>u",
">>>>uuuuu>i>:qqqww>>uuuuu>i>uuuu",
">i>>>>iiiuuu&d>;>i>>>>iiiuuu>>>>",
">>i>>>>>>>>>>>>=>>i>>>>>>>>>>>>=",
">uuuuuuu>>>>i>>>>uuuuuuu>>>>i>>>",
">>>>>>uuiuuu>>>u>>>>>>uuiuuu>>>u",
"uuuuu>>>>>>>>>>=uuuuu>>>>>>>>>>=",
">>>>u>>ii>>u        u>>ii>>uuuii",
"ui>uuu>>iiu          u>>iiuu>>>>",
">>u>>>>>>>>>         >>>>>>>uuuu",
">>>>>>>i=u>>>u>>>>>>>>>i=u>>>u>>",
">>>=>>uu>>>=uuu>>>>=>>uu>>>=uuu>"
};
