/* XPM */
static char *_f579438027346e6e6adbc64e4227cdeEFR4BxwfkTGcKB43[] = {
/* columns rows colors chars-per-pixel */
"32 32 77 1 ",
"  c black",
". c #080000",
"X c #00000C",
"o c #110100",
"O c #000214",
"+ c #11021B",
"@ c #39021C",
"# c #2D1C1D",
"$ c #16052A",
"% c #000A34",
"& c #000E3B",
"* c #00103F",
"= c #4F180F",
"- c #541A0F",
"; c #5C1D12",
": c #660017",
"> c #641F15",
", c #001243",
"< c #001B42",
"1 c #002354",
"2 c #00255A",
"3 c #00206C",
"4 c #00237A",
"5 c #132479",
"6 c #303C68",
"7 c #3D2071",
"8 c #4D1E6F",
"9 c #4F2D75",
"0 c #3A425E",
"q c #1B4074",
"w c #727272",
"e c #9A0028",
"r c #AA002B",
"t c #A8002C",
"y c #A00031",
"u c #CB002F",
"i c #CE0037",
"p c #D20031",
"a c #C33E3A",
"s c #C03D3E",
"d c #CE402B",
"f c #CD402E",
"g c #D0432C",
"h c #D1442D",
"j c #CD4032",
"k c #C9403C",
"l c #E05731",
"z c #E15831",
"x c #981754",
"c c #941C5A",
"v c #BC3D42",
"b c #C9004E",
"n c #C70050",
"m c #B77076",
"M c #FF7946",
"N c #002A83",
"B c #002C85",
"V c #003393",
"C c #203A81",
"Z c #2D3398",
"A c #004AB4",
"S c #004DBB",
"D c #2248AE",
"F c #244CB6",
"G c #2F49B2",
"H c #354AB4",
"J c #334DB4",
"K c #3650B7",
"L c #4047AC",
"P c #4249B2",
"I c #004FC0",
"U c #0059DC",
"Y c #2C59DC",
"T c #005BE0",
"R c #005CE4",
"E c #F4EEEF",
"W c #ECEEF5",
/* pixels */
"qqCCCCCqZZqqCC6qqqCCCCCqZZqqCC6q",
"CCCqqqqqqq   qq CCCqqqqqqqqqqqqq",
"6ZZqCCCCCqq    Z6ZZ CCCCCqqqqqCZ",
"qqqqqqq   CC    q    qqqCCCCCqqZ",
"CC6qqq q           qq  qqqqqqqqC",
"qqqqCCCCC           CCCCCqZqCCCC",
"qZqqqqZ     ,        qZZZCCCqqqq",
"qqZqqq      3  *X      qqqqqqqq6",
"qCCCCCCC   2& :8+    C  qqqqZqqq",
"qqqqqqC   wLV1um#%O   CC CCCqqqC",
"CCCCCqq q ErRIxW07$    qqqqqqqq6",
"qqqqCqqZZ enTRIPGc@    ZZqqCCCZZ",
"CZqCCCqqZ  AHYUbtD<  Cq ZZCCqqqq",
"qqCqqqqqqq  piyFk=o   qqqqqqCCCC",
"qqqqqqqZ6   d55fjf=.  qZ6CqqqCqq",
"qqq6qqCCqq  lddlFNa-   Cqqq6CCCq",
"qqCCCCCqZZq lllMKSNs;CCqZZqqCC6q",
"CCCqqqqqqq qMMMMhJSBv>qqqqqqqqqq",
"6ZZqCCCCCqqqMMMMzddddCCCCqqqqqCZ",
"qqqqqqqqCCCCMMMMzlgdqqqqCCCCCqqZ",
"CC6qqqqqqqqqqMMzlllqqqqqqqqqqqqC",
"qqqqCCCCCqZqClllll9qCCCCCqZqCCCC",
"qZqqqqZZZCCCqqq4qSNqqqZZZCCCqqqq",
"qqZqqqqqqqqqqqq6qqZqqqqqqqqqqqq6",
"qCCCCCCCqqqqZqqqqCCCCCCCqqqqZqqq",
"qqqqqqCCZCCCqqqCqqqqqqCCZCCCqqqC",
"CCCCCqqqqqqqqqq6CCCCCqqqqqqqqqq6",
"qqqqCqqZZqq        qCqqZZqqCCCZZ",
"CZqCCCqqZZ          CCqqZZCCqqqq",
"qqCqqqqqqqq        qqqqqqqqqCCCC",
"qqqqqqqZ6CqqqCqqqqqqqqqZ6CqqqCqq",
"qqq6qqCCqqq6CCCqqqq6qqCCqqq6CCCq"
};
