/* XPM */
static char *result[] = {
/* columns rows colors chars-per-pixel */
"32 32 47 1 ",
"  c black",
". c #2E2019",
"X c #182023",
"o c #153223",
"O c #282828",
"+ c #343434",
"@ c #413120",
"# c #4C3224",
"$ c #4A3E25",
"% c #5F3D2C",
"& c #284928",
"* c #284435",
"= c #285336",
"- c #245A38",
"; c #594927",
": c #4C5029",
"> c #616628",
", c #7D6B21",
"< c #636C31",
"1 c #303C68",
"2 c #256845",
"3 c #005063",
"4 c #1B4074",
"5 c #006176",
"6 c #8C611F",
"7 c #9F7525",
"8 c #AF7D28",
"9 c #857565",
"0 c #9A923A",
"q c #B2A132",
"w c #CFB538",
"e c #D0C63D",
"r c #9F846A",
"t c #203A81",
"y c #2D3398",
"u c #16718B",
"i c #0087B8",
"p c #49979C",
"a c #009EC5",
"s c #00A1CD",
"d c #888A91",
"f c #AF9882",
"g c #9C9EA3",
"h c #A8B0B8",
"j c #BDBEB4",
"k c #CFC3A7",
"l c gray77",
/* pixels */
"44ttttt4yy44tt1444ttttt4yy44tt14",
"ttt4444444444eewq704444444444444",
"1yy4ttttt444wwwwewq0ttttt44444ty",
"44444444ttteqweqwqwqq444ttttt44y",
"tt14444444eq0eqeq;qw74444444444t",
"4444ttttt4y0wq6e09wq6tttt4y4tttt",
"4y4444yyyttte79qr9q744yyyttt4444",
"44y444444444w93rj396444444444441",
"4ttttttt444wqrskjsf9qttt4444y444",
"444444ttytte>qfkkf:<w4ttyttt444t",
"ttttt444444q,w:99:<7q44444444441",
"4444t44yy448q>ogdo<qe44yy44tttyy",
"ty4ttt44yyttw*&u5&*qtt44yytt4444",
"44t44444444et&iap*&4q4444444tttt",
"4444444y1t44425iui-4444y1t444t44",
"444144tt4441t-o5ou-144tt4441ttt4",
"44ttttt4yy44h-o*&o-dttt4yy44tt14",
"ttt444444444kh*=&ohf444444444444",
"1yy4ttttt4444*=2*&o4ttttt44444ty",
"44444444ttttt2-=&=*44444ttttt44y",
"tt1444444444-2=&=&*o44444444444t",
"4444ttttt4yl22=2=*&*dtttt4y4tttt",
"4y4444yyytttlh-=&*dh44yyyttt4444",
"44y44444444444lghgy4444444444441",
"4ttttttt4444y44OOttttttt4444y444",
"444444ttyttt444++44444ttyttt444t",
"ttttt444444444%#@$ttt44444444441",
"4444t44yy44tX%#..@$Xt44yy44tttyy",
"ty4ttt44yytt ..  .. tt44yytt4444",
"44t444444444tX    X444444444tttt",
"4444444y1t444t444444444y1t444t44",
"444144tt4441ttt4444144tt4441ttt4"
};
