/* XPM */
static char *result[] = {
/* columns rows colors chars-per-pixel */
"32 32 7 1 ",
"  c #303C68",
". c #1B4074",
"X c #B70009",
"o c #D2000C",
"O c #EC0010",
"+ c #203A81",
"@ c #2D3398",
/* pixels */
"..+++++.@@..++ ...+++++.@@..++ .",
"+++.............+++.............",
" @@.+++++.....+@ @@.+++++.....+@",
"........+++++..@........+++++..@",
"++ ............+++ ............+",
"....+++++.@.++++....+++++.@.++++",
".@....@@@+++.....@....@@@+++....",
"..@............ ..@............ ",
".+++++++....@....+++++++....@...",
"......++@+++...+......++@+++...+",
"+++++.......... +++++.......... ",
"....+..@@..+++@@....+..@@..+++@@",
"+@.+++..@@++....+@.+++..@@++....",
"..+......OOOOoo+.OO..oo.....++++",
".......@ OOOOoo..OO..oo@ +...+..",
"... ..++.OO +OOooXXooXX+... +++.",
"..+++++.@OO.+OOooXXooXX.@@..++ .",
"+++......ooXXXX.+++.............",
" @@.+++++ooXXXX@ @@.+++++.....+@",
"........+++++..@........+++++..@",
"++ ............+++ ............+",
"....+++++.@.++++....+++++.@.++++",
".@....@@@+++.....@....@@@+++....",
"..@............ ..@............ ",
".+++++++....@....+++++++....@...",
"......++@+++...+......++@+++...+",
"+++++.......... +++++.......... ",
"....+..@@..+++@@....+..@@..+++@@",
"+@.+++..@@++....+@.+++..@@++....",
"..+.........++++..+.........++++",
".......@ +...+.........@ +...+..",
"... ..++... +++.... ..++... +++."
};
