/* XPM */
static char *result[] = {
/* columns rows colors chars-per-pixel */
"32 32 44 1 ",
"  c black",
". c #2E2019",
"X c #182023",
"o c #153223",
"O c #282828",
"+ c #343434",
"@ c #4C3224",
"# c #5F3D2C",
"$ c #284928",
"% c #284435",
"& c #285336",
"* c #245A38",
"= c #594927",
"- c #4C5029",
"; c #616628",
": c #7D6B21",
"> c #636C31",
", c #303C68",
"< c #256845",
"1 c #005063",
"2 c #1B4074",
"3 c #006176",
"4 c #9F7525",
"5 c #AF7D28",
"6 c #857565",
"7 c #9A923A",
"8 c #B2A132",
"9 c #CFB538",
"0 c #D0C63D",
"q c #9F846A",
"w c #203A81",
"e c #2D3398",
"r c #0087B8",
"t c #49979C",
"y c #65808C",
"u c #009EC5",
"i c #00A1CD",
"p c #888A91",
"a c #AF9882",
"s c #9C9EA3",
"d c #95A5AA",
"f c #A8B0B8",
"g c #BDBEB4",
"h c gray77",
/* pixels */
"22wwwww2ee22ww,222wwwww2ee22ww,2",
"www22222222220090852222222222222",
",ee2wwwww22200909085wwwww22222we",
"22222222www0800998085222wwwww22e",
"ww,22222220870=9998872222222222w",
"2222wwwww2e79868949:5wwww2e2wwww",
"2e2222eeewww066060:522eeewww2222",
"22e222222222961aa94822222222222,",
"2wwwwwww2222eaiga6>97www2222e222",
"222222wwewww22aga-;502wwewww222w",
"wwwww2222222222q6-:582222222222,",
"2222w22ee22wwwedd;59822ee22wwwee",
"we2www22eeww22td%*>7ww22eeww2222",
"22w222222222wur%$*;202222222wwww",
"2222222e,w222r3%*222222e,w222w22",
"222,22ww222,w3y%*22,22ww222,www2",
"22wwwww2ee22ww<p*owwwww2ee22ww,2",
"www22222222222*af%w2222222222222",
",ee2wwwww2222<&%%$o2wwwww22222we",
"22222222wwwww<*&$&%22222wwwww22e",
"ww,222222222**&$&$%o22222222222w",
"2222wwwww2eh<*&<&%$%pwwww2e2wwww",
"2e2222eeewwwhf*&$%pf22eeewww2222",
"22e22222222222hsfse222222222222,",
"2wwwwwww2222e222Owwwwwww2222e222",
"222222wwewww222w+22222wwewww222w",
"wwwww2222222X  #@ Xww2222222222,",
"2222w22ee22X  #@.  Xw22ee22wwwee",
"we2www22eewwX ..  Xwww22eeww2222",
"22w222222222wwXXX2w222222222wwww",
"2222222e,w222w222222222e,w222w22",
"222,22ww222,www2222,22ww222,www2"
};
