/* XPM */
static char *result[] = {
/* columns rows colors chars-per-pixel */
"32 32 43 1 ",
"  c black",
". c #2E2019",
"X c #182023",
"o c #153223",
"O c #282828",
"+ c #343434",
"@ c #4C3224",
"# c #5F3D2C",
"$ c #284928",
"% c #284435",
"& c #285336",
"* c #245A38",
"= c #4C5029",
"- c #616628",
"; c #7D6B21",
": c #636C31",
"> c #303C68",
", c #256845",
"< c #005063",
"1 c #1B4074",
"2 c #006176",
"3 c #9F7525",
"4 c #AF7D28",
"5 c #857565",
"6 c #9A923A",
"7 c #B2A132",
"8 c #CFB538",
"9 c #D0C63D",
"0 c #9F846A",
"q c #203A81",
"w c #2D3398",
"e c #0087B8",
"r c #49979C",
"t c #65808C",
"y c #009EC5",
"u c #00A1CD",
"i c #888A91",
"p c #AF9882",
"a c #9C9EA3",
"s c #95A5AA",
"d c #A8B0B8",
"f c #BDBEB4",
"g c gray77",
/* pixels */
"11qqqqq1ww11qq>111qqqqq1ww11qq>1",
"qqq11111111119989741111111111111",
">ww1qqqqq11199899974qqqqq11111qw",
"11111111qqq9789887974111qqqqq11w",
"qq>1111111976986787961111111111q",
"1111qqqqq1w6879;73838qqqq1w1qqqq",
"1w1111wwwqqq9;95;57311wwwqqq1111",
"11w111111111838pp<5811111111111>",
"1qqqqqqq11169:59fupqqqqq1111w111",
"111111qqwqq94-=8fp1111qqwqqq111q",
"qqqqq11111174;=50qqqq1111111111>",
"1111q11ww11784-ss111q11ww11qqqww",
"qw1qqq11wwqq6:*%sr1qqq11wwqq1111",
"11q111111119q-*$%ey111111111qqqq",
"1111111w>q111q1*%2e1111w>q111q11",
"111>11qq111>qqq*%t2>11qq111>qqq1",
"11qqqqq1ww11qq,*ioqqqqq1ww11qq>1",
"qqq11111111111*dp%q1111111111111",
">ww1qqqqq1111,&%%$o1qqqqq11111qw",
"11111111qqqqq,*&$&%11111qqqqq11w",
"qq>111111111**&$&$%o11111111111q",
"1111qqqqq1wg,*&,&%$%iqqqq1w1qqqq",
"1w1111wwwqqqgd*&$%id11wwwqqq1111",
"11w11111111111gadaw111111111111>",
"1qqqqqqq1111w11O1qqqqqqq1111w111",
"111111qqwqqq111+111111qqwqqq111q",
"qqqqq11111111X @#  Xq1111111111>",
"1111q11ww11qX  .@#  X11ww11qqqww",
"qw1qqq11wwqq1X  .. Xqq11wwqq1111",
"11q111111111qqqXXXq111111111qqqq",
"1111111w>q111q111111111w>q111q11",
"111>11qq111>qqq1111>11qq111>qqq1"
};
