/* XPM */
static char *result[] = {
/* columns rows colors chars-per-pixel */
"32 32 118 2 ",
"   c #110F1D",
".  c #150F1D",
"X  c #17131B",
"o  c #11101C",
"O  c #13101C",
"+  c #13101D",
"@  c #13121C",
"#  c #13121E",
"$  c #15101C",
"%  c #15101D",
"&  c #16101C",
"*  c #17111D",
"=  c #15131C",
"-  c #16121C",
";  c #16131C",
":  c #16121D",
">  c #16131D",
",  c #17131D",
"<  c #16121E",
"1  c #17121E",
"2  c #17131E",
"3  c #11141D",
"4  c #13141C",
"5  c #15151D",
"6  c #17151D",
"7  c #15141E",
"8  c #15151E",
"9  c #16151E",
"0  c #17151E",
"q  c #16151F",
"w  c #18111D",
"e  c #19111D",
"r  c #18131C",
"t  c #18131D",
"y  c #18111E",
"u  c #18131E",
"i  c #18151C",
"p  c #18151D",
"a  c #18151E",
"s  c #1A3C27",
"d  c #273C3B",
"f  c #1D4428",
"g  c #1E452B",
"h  c #224128",
"j  c #214229",
"k  c #224429",
"l  c #23452A",
"z  c #284C2D",
"x  c #3E652D",
"c  c #34682F",
"v  c #346330",
"b  c #386533",
"n  c #336A31",
"m  c #376930",
"M  c #3B6A31",
"N  c #3C6930",
"B  c #386C31",
"V  c #396C31",
"C  c #386C32",
"Z  c #303C68",
"A  c #1B4074",
"S  c #B1002A",
"D  c #B1002B",
"F  c #B0002C",
"G  c #B1002C",
"H  c #B1002D",
"J  c #CB002E",
"K  c #C90030",
"L  c #C80031",
"P  c #CA0031",
"I  c #CB0032",
"U  c #CB0033",
"Y  c #CC0030",
"T  c #CF0030",
"R  c #CC0033",
"E  c #D30031",
"W  c #D20033",
"Q  c #D20037",
"!  c #DB0034",
"~  c #D30038",
"^  c #DA003A",
"/  c #DC0038",
"(  c #E6002D",
")  c #EC0C28",
"_  c #EC1628",
"`  c #F21728",
"'  c #E40036",
"]  c #E5003E",
"[  c #EC1C35",
"{  c #F63130",
"}  c #FF3735",
"|  c #FF3F36",
" . c #FD3B38",
".. c #FF4137",
"X. c #FF433A",
"o. c #FF4B3D",
"O. c #FF4D3D",
"+. c #FF4C3E",
"@. c #FF4B41",
"#. c #FF5341",
"$. c #FF5342",
"%. c #FF5542",
"&. c #FF5E48",
"*. c #FF6049",
"=. c #FF634B",
"-. c #FF664F",
";. c #FF7D5C",
":. c #FF7C64",
">. c #FF7C66",
",. c #FF7C67",
"<. c #FF7F66",
"1. c #FF7E67",
"2. c #77A43F",
"3. c #85B143",
"4. c #FF866F",
"5. c #FF896F",
"6. c #203A81",
"7. c #2D3398",
/* pixels */
"A A 6.6.6.6.6.A 7.7.A A 6.6.Z A A A 6.6.6.6.6.A 7.7.A A 6.6.Z A ",
"6.6.6.A A A A A A A A A A A A A 6.6.6.A A A A A A A A A A A A A ",
"Z 7.7.A 6.6.6.6.6.A A A A A 6.7.Z 7.7.A 6.6.6.6.6.A A A A A 6.7.",
"A A A A A A A A 6.6.6.6.6.A A 7.A A A A A A A A 6.6.6.6.6.A A 7.",
"6.6.Z A A A A A A A A A A A A # 4 $ Z A A A A A A A A A A A A 6.",
"A A A A 6.6.6.6.6.A 7.7 ; 6.w W X.[ % A 6.6.6.6.6.A 7.A 6.6.6.6.",
"A 7.A A A A 7.7.7.6.q O.+.t w K ' J - 3 o A 7.7.7.6.6.6.A A A A ",
"A A 7.A A A A A A A a J ` J t P J @  ./ ;.  A A A A A A A A A Z ",
"A 6.6.6.6.6.6.6.A A 0 J _ ) J S 5 o.~ >.&.O 6.6.A A A A 7.A A A ",
"A A A A A A 6.6.7.6.0 J ..| ( 8 J ~ :.,.*.+ 6.6.7.6.6.6.A A A 6.",
"6.6.6.6.6.A A A A A 0 J { T 5.E < Q <.1.=.+ A A A A A A A A A Z ",
"A A A A 6.A A 7.7.A a J U 4.$.R w H -.@.] . A 7.7.A A 6.6.6.7.7.",
"6.7.A 6.6.6.A A 7.7.p D Y %.#.I w H } ^ G $ A A 7.7.6.6.A A A A ",
"A A 6.A A A A A A A A 8 J ! J L w F S : - A A A A A A A 6.6.6.6.",
"A A A A A A A 7.Z 6.A A 9 ; X : s < & A A A A 7.Z 6.A A A 6.A A ",
"A A A Z A A 6.6.A A A Z 6.6.6.t v * < < < A 6.6.A A A Z 6.6.6.A ",
"A A 6.6.6.6.6.A 7.7.A A 6.6.Z t b r g f h < 6.A 7.7.A A 6.6.Z A ",
"6.6.6.A A A A A A A A A A A > 6 d i l k j < A A A A A A A A A A ",
"Z 7.7.A 6.6.6.6.6.A A A A A 6.p c , 2.z 3.< 6.6.6.A A A A A 6.7.",
"A A A A A A A A 6.6.6.6.6.A : 2 m , : < = A A A 6.6.6.6.6.A A 7.",
"6.6.Z A A A A A A A A A A A A u M > Z A A A A A A A A A A A A 6.",
"A A A A 6.6.6.6.6.A 7.A 6.6.6., N , A A 6.6.6.6.6.A 7.A 6.6.6.6.",
"A 7.A A A A 7.7.7.6.6.6.A A A u x t A A A A 7.7.7.6.6.6.A A A A ",
"A A 7.A A A A A A A A A A A A u n w 7.A A A A A A A A A A A A Z ",
"A 6.6.6.6.6.6.6.A A A A 7.A A u C , 6.6.6.6.6.6.A A A A 7.A A A ",
"A A A A A A 6.6.7.6.6.6.A A A t B r A A A A 6.6.7.6.6.6.A A A 6.",
"6.6.6.6.6.A A A A A A A A A A t V t 6.6.6.A A A A A A A A A A Z ",
"A A A A 6.A A 7.7.A A 6.6.6.7.y 1 e A A 6.A A 7.7.A A 6.6.6.7.7.",
"6.7.A 6.6.6.A A 7.7.6.6.A A A A 6.7.A 6.6.6.A A 7.7.6.6.A A A A ",
"A A 6.A A A A A A A A A 6.6.6.6.A A 6.A A A A A A A A A 6.6.6.6.",
"A A A A A A A 7.Z 6.A A A 6.A A A A A A A A A 7.Z 6.A A A 6.A A ",
"A A A Z A A 6.6.A A A Z 6.6.6.A A A A Z A A 6.6.A A A Z 6.6.6.A "
};
