/* XPM */
static char *result[] = {
/* columns rows colors chars-per-pixel */
"32 32 4 1 ",
"  c #1D2841",
". c #1B2F43",
"X c #1B2B54",
"o c #202C4A",
/* pixels */
" X.Xo...o..X.o o X.Xo...o..X.o o",
" X.Xoo. o .X.o o X.Xoo. o .X.o o",
". .Xo ..o .X.  .. .Xo ..o .X.  .",
". .oo o.X ..X.o.. .oo o.X ..X.o.",
". .X oo.X .Xo ... .X oo.X .Xo ..",
".X X o..Xo o X.o.X X o..Xo o X.o",
" . X o..X. o X.. . X o..X. o X..",
"o.  .o.o..oX  ..o.  .o.o..oX  ..",
"o.  Xo.X..o  .X.o.  Xo.X..o  .X.",
"oX. Xo.X.oX  .XooX. Xo.X.oX  .Xo",
"XX. . .oo.X ...oXX. . .oo.X ...o",
"Xo  .X.oo.Xo.X.oXo  .X.oo.Xo.X.o",
" X . .. oX.X. .o X . .. oX.X. .o",
" XXX .. ooX.o Xo XXX .. ooX.o Xo",
"  Xo  ..o.X.o. o  Xo  ..o.X.o. o",
"  Xoo .oo ...o o  Xoo .oo ...o o",
"XX. . .oo.X ...o X.Xo...o..X.o o",
"Xo  .X.oo.Xo.X.o X.Xoo. o .X.o o",
" X . .. oX.X. .o. .Xo ..o .X.  .",
" X.Xo...o..X.o o. .oo o.X ..X.o.",
" X.Xoo. o .X.o o. .X oo.X .Xo ..",
". .Xo ..o .X.  ..X X o..Xo o X.o",
". .oo o.X ..X.o. . X o..X. o X..",
". .X oo.X .Xo ..o.  .o.o..oX  ..",
".X X o..Xo o X.oo.  Xo.X..o  .X.",
" . X o..X. o X..oX. Xo.X.oX  .Xo",
"o.  .o.o..oX  ..XX. . .oo.X ...o",
"o.  Xo.X..o  .X.Xo  .X.oo.Xo.X.o",
"oX. Xo.X.oX  .Xo X . .. oX.X. .o",
"XX. . .oo.X ...o XXX .. ooX.o Xo",
"Xo  .X.oo.Xo.X.o  Xo  ..o.X.o. o",
" X . .. oX.X. .o  Xoo .oo ...o o"
};
